PathFileType	4	(X/Y/Z)	E:\Qualisys_Data\Carbon_Farble_Plate\Data\Amateur_Runner\S2\T2\S2T2V22_c3d.trc
DataRate	CameraRate	NumFrames	NumMarkers	Units	OrigDataRate	OrigDataStartFrame	OrigNumFrames
200.000000	200.000000	4	39	mm	200.000000	223	298
Frame#	Time	LSHO			RSHO			LICST			RICST			LASIS			LHEEL			RASIS			LTROC			RTROC			SACR			LTH1			LSK4			LTH2			LTH3			RHM5			LSK2			LTH4			RTH1			LTOE			RTH2			RTH3			RTH4			LLEP			RLEP			LSK1			LSK3			RSK1			LHM5			RSK2			LFT1			RSK3			RSK4			LLME			RLME			RTOE			RHEEL			RFT1			RFT2			LFT2			
		X1	Y1	Z1	X2	Y2	Z2	X3	Y3	Z3	X4	Y4	Z4	X5	Y5	Z5	X6	Y6	Z6	X7	Y7	Z7	X8	Y8	Z8	X9	Y9	Z9	X10	Y10	Z10	X11	Y11	Z11	X12	Y12	Z12	X13	Y13	Z13	X14	Y14	Z14	X15	Y15	Z15	X16	Y16	Z16	X17	Y17	Z17	X18	Y18	Z18	X19	Y19	Z19	X20	Y20	Z20	X21	Y21	Z21	X22	Y22	Z22	X23	Y23	Z23	X24	Y24	Z24	X25	Y25	Z25	X26	Y26	Z26	X27	Y27	Z27	X28	Y28	Z28	X29	Y29	Z29	X30	Y30	Z30	X31	Y31	Z31	X32	Y32	Z32	X33	Y33	Z33	X34	Y34	Z34	X35	Y35	Z35	X36	Y36	Z36	X37	Y37	Z37	X38	Y38	Z38	X39	Y39	Z39	

224	1.115	1643.394653320312	1459.87841796875	-444.3465576171875	1764.447265625	1445.683471679688	-173.5056915283203	1665.247680664062	997.715087890625	-442.1494445800781	1706.773803710938	977.0575561523438	-146.1675109863281	1724.675659179688	949.3589477539062	-427.2607727050781	1820.95263671875	72.6820297241211	-303.8917846679688	1759.463500976562	927.5197143554688	-173.6708068847656	1608.607055664062	869.07763671875	-449.701416015625	1603.057983398438	889.0316162109375	-133.59619140625	1591.5986328125	1028.3857421875	-276.787841796875	1804.4150390625	654.9778442382812	-457.9876403808594	1802.078369140625	272.751708984375	-409.7669677734375	1726.307861328125	625.7415161132812	-452.2929077148438	1840.993774414062	564.9652709960938	-420.8699645996094	1076.084350585938	427.0845336914062	-149.7280426025391	1791.836181640625	369.7973022460938	-427.5101013183594	1760.568359375	537.0027465820312	-416.2752075195312	1661.93310546875	610.217041015625	-127.6079177856445	2053.748779296875	155.2687530517578	-345.4272766113281	1587.140747070312	633.191650390625	-129.9822540283203	1632.982421875	513.5973510742188	-134.3898620605469	1556.799072265625	539.4968872070312	-144.9993896484375	1816.9287109375	508.2022705078125	-415.5205078125	1568.26806640625	501.6377258300781	-133.2882843017578	1868.61083984375	380.2106628417969	-414.1857299804688	1880.265991210938	281.8806457519531	-400.3786926269531	1464.2607421875	454.6054077148438	-130.3563537597656	2009.192138671875	103.6711502075195	-394.8578796386719	1465.093017578125	535.6591186523438	-134.9396209716797	1842.899291992188	54.3223762512207	-280.0468139648438	1362.22119140625	454.895751953125	-140.771484375	1366.968505859375	534.1111450195312	-149.4100341796875	1874.619873046875	98.50021362304688	-370.2243957519531	1181.7470703125	500.696533203125	-179.7124786376953	1065.815063476562	342.0664978027344	-189.1603088378906	1206.836059570312	540.5767211914062	-247.7688140869141	1179.350952148438	530.9114379882812	-282.2541198730469	1178.99267578125	560.06982421875	-232.9823150634766	1837.014038085938	39.73421859741211	-331.5498352050781
225	1.12	1666.30859375	1453.808959960938	-446.5671081542969	1786.117065429688	1440.8154296875	-173.8596649169922	1685.160400390625	992.9371948242188	-441.9357299804688	1727.454223632812	971.82958984375	-145.9065856933594	1745.135620117188	944.8352661132812	-427.305908203125	1831.645263671875	77.09101867675781	-306.1726684570312	1780.783813476562	922.7832641601562	-173.458740234375	1628.811401367188	863.8380737304688	-449.3050231933594	1624.716674804688	882.8116455078125	-133.1763458251953	1612.178344726562	1023.503051757812	-276.6426086425781	1826.662719726562	652.8412475585938	-455.2194519042969	1817.785400390625	268.6758117675781	-408.32080078125	1749.113891601562	624.11376953125	-449.7844543457031	1862.879028320312	562.6353759765625	-418.2318725585938	1106.949462890625	434.2757873535156	-149.9256439208984	1809.573608398438	365.6850891113281	-425.7023010253906	1782.818725585938	534.7957153320312	-416.1152648925781	1688.246337890625	605.042236328125	-126.0268859863281	2067.46875	143.3408660888672	-342.658935546875	1613.246826171875	626.3260498046875	-128.8318481445312	1661.762329101562	507.8211059570312	-132.3049621582031	1585.092041015625	531.8619384765625	-143.1600189208984	1838.956909179688	504.9931335449219	-413.8818969726562	1598.10595703125	494.8118286132812	-130.7400512695312	1886.618041992188	374.3617858886719	-413.1002197265625	1895.954223632812	276.2499084472656	-398.976318359375	1494.258422851562	450.2917175292969	-129.107666015625	2020.142822265625	94.02967834472656	-392.0302734375	1497.096313476562	531.5186767578125	-133.5770721435547	1850.05615234375	56.46438217163086	-279.4658203125	1392.244262695312	454.2373657226562	-140.0020599365234	1399.037841796875	532.648681640625	-148.7723083496094	1886.329345703125	93.75678253173828	-368.3461608886719	1213.834716796875	505.4909057617188	-180.6708068847656	1094.979614257812	349.0447692871094	-189.0008392333984	1239.914794921875	544.8316040039062	-248.8027801513672	1212.317260742188	535.1483764648438	-283.0727233886719	1212.4267578125	565.039794921875	-234.5114593505859	1844.494018554688	40.75829315185547	-332.0000915527344
226	1.125	1689.632690429688	1447.433715820312	-448.9179992675781	1807.884033203125	1435.6259765625	-174.2911224365234	1705.189575195312	988.1669311523438	-442.2709350585938	1748.362915039062	967.21875	-145.6314392089844	1765.351318359375	940.0822143554688	-427.7198791503906	1840.943969726562	75.38899230957031	-302.8995056152344	1801.511352539062	918.23095703125	-173.8153381347656	1649.148681640625	858.7651977539062	-448.5650024414062	1646.143920898438	875.9050903320312	-132.5282287597656	1632.770385742188	1018.479431152344	-276.1083679199219	1848.876220703125	651.1002807617188	-451.6701049804688	1832.609985351562	263.9634399414062	-406.2560119628906	1772.104125976562	622.2425537109375	-446.6529541015625	1884.841064453125	560.4572143554688	-415.8170166015625	1138.699462890625	440.1374206542969	-150.32080078125	1826.480102539062	361.5823669433594	-424.2422180175781	1804.615112304688	532.3284912109375	-415.1020812988281	1715.2861328125	599.778076171875	-124.9208450317383	2078.1240234375	129.3036956787109	-339.2465515136719	1639.955810546875	618.9724731445312	-127.8199081420898	1690.629272460938	501.5429382324219	-130.1648712158203	1613.903930664062	524.3558349609375	-140.7596282958984	1860.343627929688	501.6190185546875	-412.4812622070312	1628.523559570312	487.9760437011719	-128.5928955078125	1904.14013671875	368.6304321289062	-411.8744506835938	1911.48291015625	270.1204833984375	-397.7008361816406	1524.489135742188	446.1022644042969	-128.1240386962891	2027.914428710938	81.13768768310547	-388.3419494628906	1529.78857421875	527.446044921875	-131.93408203125	1857.233520507812	55.05219268798828	-277.3489379882812	1423.024047851562	452.7316284179688	-139.9779205322266	1431.779418945312	531.1461791992188	-147.9816436767578	1896.593505859375	88.18448638916016	-366.0373840332031	1246.640380859375	509.8156127929688	-181.3639831542969	1125.889892578125	355.4497375488281	-188.7894287109375	1273.542114257812	548.3306274414062	-249.1997985839844	1245.925537109375	539.6998901367188	-285.1461791992188	1246.425537109375	569.4547119140625	-235.4932861328125	1850.81640625	39.11222076416016	-328.8563842773438
227	1.13	1712.854614257812	1440.981811523438	-451.3352966308594	1829.537841796875	1430.280395507812	-174.3553924560547	1725.213012695312	983.0919799804688	-442.1730041503906	1769.12451171875	962.117919921875	-145.4128570556641	1785.529907226562	935.431396484375	-428.0254516601562	1849.651733398438	75.83267211914062	-298.8896484375	1822.148803710938	913.3425903320312	-173.7195587158203	1668.7060546875	853.3269653320312	-447.3655700683594	1667.960571289062	869.23388671875	-131.8867034912109	1652.54736328125	1012.966430664062	-275.7610168457031	1871.200439453125	649.1429443359375	-447.529052734375	1847.4697265625	259.9500427246094	-405.0804138183594	1795.05419921875	620.8026123046875	-443.91015625	1906.912963867188	558.1396484375	-413.2332763671875	1171.373168945312	446.0751647949219	-150.2919921875	1843.33056640625	357.4563293457031	-423.0866394042969	1826.991577148438	530.106689453125	-414.2474670410156	1742.823852539062	594.0641479492188	-123.7821350097656	2088.427001953125	113.099479675293	-336.3844299316406	1666.762084960938	612.054931640625	-127.0548553466797	1720.284912109375	495.7295227050781	-128.5493469238281	1643.086791992188	516.028076171875	-138.6904296875	1881.019775390625	497.5682373046875	-411.4798278808594	1659.329711914062	481.5829467773438	-126.1205749511719	1921.186279296875	362.7262268066406	-410.7078857421875	1926.341918945312	263.8914184570312	-395.9107971191406	1555.23291015625	441.36083984375	-127.3826751708984	2035.049926757812	68.78672790527344	-384.8964538574219	1562.662475585938	522.6880493164062	-130.6661987304688	1863.966796875	51.94083023071289	-273.8099975585938	1454.103637695312	450.7056579589844	-139.9519195556641	1464.87451171875	529.2691040039062	-147.9090423583984	1904.727661132812	83.22193145751953	-363.6724853515625	1280.170043945312	513.4945678710938	-181.8578186035156	1157.327758789062	360.8285522460938	-188.7608489990234	1307.630981445312	551.85107421875	-249.7124481201172	1279.797119140625	543.111572265625	-284.6420593261719	1280.6708984375	573.13037109375	-236.0297546386719	1854.861328125	39.75434494018555	-326.3277282714844
